PathFileType	4	(X/Y/Z)	C:/Users/opensim2020/Desktop/walking_exp_matlab/subject03/subject03_trc/subject03_walking16_run_cyclic.trc																																																																																																																																																	
DataRate	CameraRate	NumFrames	NumMarkers	Units	OrigDataRate	OrigDataStartFrame	OrigNumFrames																																																																																																																																													
100	100	5	49	mm	100	222	67																																																																																																																																													
Frame#	Time	RKNE			RTOE			RWRB			LTHI			RELB			RFRM			RUPA			RASI			LTIB			RWRA			RTHI			LSHO			LTOE			RTIB			LWRA			CLAV			LASI			RSHO			RFHD			STRN			LHEE			RFIN			RBHD			LFRM			C7			LWRB			LFIN			LUPA			LBHD			LELB			RANK			RHEE			RBAK			LPSI			T10			LFHD			RPSI			LKNE			LANK			*39			*40			*41			*42			*43			*44			*45			*46			*47			*48		
		X1	Y1	Z1	X2	Y2	Z2	X3	Y3	Z3	X4	Y4	Z4	X5	Y5	Z5	X6	Y6	Z6	X7	Y7	Z7	X8	Y8	Z8	X9	Y9	Z9	X10	Y10	Z10	X11	Y11	Z11	X12	Y12	Z12	X13	Y13	Z13	X14	Y14	Z14	X15	Y15	Z15	X16	Y16	Z16	X17	Y17	Z17	X18	Y18	Z18	X19	Y19	Z19	X20	Y20	Z20	X21	Y21	Z21	X22	Y22	Z22	X23	Y23	Z23	X24	Y24	Z24	X25	Y25	Z25	X26	Y26	Z26	X27	Y27	Z27	X28	Y28	Z28	X29	Y29	Z29	X30	Y30	Z30	X31	Y31	Z31	X32	Y32	Z32	X33	Y33	Z33	X34	Y34	Z34	X35	Y35	Z35	X36	Y36	Z36	X37	Y37	Z37	X38	Y38	Z38	X39	Y39	Z39	X40	Y40	Z40	X41	Y41	Z41	X42	Y42	Z42	X43	Y43	Z43	X44	Y44	Z44	X45	Y45	Z45	X46	Y46	Z46	X47	Y47	Z47	X48	Y48	Z48	X49	Y49	Z49
																																																																																																																																																				
29	0.28	-540.2674	439.25613	360.15811	-865.53491	130.59506	343.63474	-669.1521	855.03192	467.50314	-708.19061	583.84082	79.43114	-790.64838	1041.69751	497.18542	-720.49731	935.07629	481.60205	-774.47809	1136.70117	469.95749	-671.74133	868.42395	352.64731	-783.21387	240.89552	140.78848	-650.37073	886.78046	427.61044	-638.2337	591.63501	396.74408	-658.69031	1304.96216	58.55041	-758.64728	31.80229	225.71758	-693.72736	351.37335	373.40359	-526.98297	879.51678	96.49882	-617.79968	1270.45581	214.0787	-687.6015	877.18427	117.72392	-677.0835	1314.38611	367.55527	-663.57397	1568.15149	282.5722	-595.86932	1097.53809	218.13167	-949.82037	50.04792	235.32655	-603.42792	835.40839	458.14917	-761.29254	1482.07495	264.10092	-576.68127	950.18781	5.12294	-741.06555	1352.73633	197.57352	-499.73611	879.47626	44.79714	-487.3425	792.30188	75.08919	-669.40649	1127.66162	-36.66422	-738.35608	1479.53735	135.31247	-657.45514	1016.61456	-52.49558	-894.09875	268.18124	352.10471	-949.40552	288.93939	303.56433	-811.47662	1198.10107	300.55499	-843.164	916.01031	179.22404	-814.74304	1058.08801	237.5136	-636.09991	1566.32825	151.50844	-829.31573	914.04596	327.23712	-672.73279	408.23328	122.93023	-897.64703	71.43629	198.11957	NaN	NaN	NaN	NaN	NaN	NaN	NaN	NaN	NaN	NaN	NaN	NaN	NaN	NaN	NaN	NaN	NaN	NaN	NaN	NaN	NaN	-744.19141	1590.57446	183.80661	NaN	NaN	NaN	NaN	NaN	NaN
30	0.29	-490.7605	453.86929	359.72672	-789.90533	121.02097	343.00369	-653.42169	860.48962	472.73486	-690.88092	580.27405	81.17685	-774.56805	1048.57642	498.11356	-704.63885	941.06079	484.98447	-754.50476	1142.82654	469.31693	-640.75079	870.1767	352.36087	-778.21576	240.2133	140.95433	-632.82465	892.33344	433.90356	-599.36072	598.95782	396.31924	-626.02386	1307.93689	59.48313	-758.64697	31.90183	225.77348	-637.30383	353.52301	373.42249	-477.08292	899.79016	109.96955	-585.97614	1270.92383	215.82034	-657.63031	875.72852	116.8644	-647.75696	1314.87244	368.46545	-631.71143	1569.45935	282.42941	-564.47394	1098.1073	218.64381	-950.26166	53.20663	233.40126	-587.53625	840.63733	466.56696	-729.35681	1483.12439	265.04242	-531.15405	961.06415	14.54927	-709.0907	1353.66821	198.35904	-449.93079	897.67578	58.30606	-430.60254	814.54504	95.08083	-632.83295	1129.18945	-33.28203	-706.7547	1479.52844	136.23105	-616.16675	1018.69928	-45.29645	-831.21777	254.96577	352.57886	-889.03131	270.93158	304.61765	-781.35541	1199.625	298.29724	-812.45496	916.56702	179.44307	-783.04688	1058.91797	236.18082	-604.55963	1566.49402	151.33192	-798.08368	915.80627	327.51331	-662.22156	403.92526	124.49399	-896.75574	73.17275	197.13951	NaN	NaN	NaN	NaN	NaN	NaN	NaN	NaN	NaN	NaN	NaN	NaN	NaN	NaN	NaN	NaN	NaN	NaN	NaN	NaN	NaN	-712.49615	1591.04712	183.69002	NaN	NaN	NaN	NaN	NaN	NaN
31	0.3	-443.92819	469.46295	359.37659	-713.06775	111.76497	342.01602	-636.79382	868.38251	476.68903	-673.84418	578.93903	82.59922	-757.07483	1057.03528	498.04675	-687.61139	949.49512	487.10818	-733.10455	1150.25342	468.32077	-609.19202	872.51196	351.94943	-773.61444	240.74504	141.04172	-614.60004	900.00085	438.73776	-561.34503	607.15381	395.63165	-593.1051	1312.07568	60.64182	-758.83496	31.78217	225.5686	-582.41656	356.28619	373.01111	-430.09167	922.9787	122.41405	-554.11658	1272.94666	217.58492	-627.22882	874.79803	115.45943	-618.57477	1317.05054	369.18411	-599.68756	1571.98315	282.63547	-532.49341	1100.18262	219.69896	-949.61304	57.60627	231.51485	-570.44702	848.47937	473.89456	-697.23016	1485.45105	266.23181	-487.95419	973.8089	23.26946	-676.98828	1355.68811	199.12134	-403.28583	918.03259	70.7495	-376.00024	841.53033	115.49776	-596.98859	1131.94092	-30.32181	-674.99194	1480.78796	137.42006	-576.03033	1022.40686	-38.81047	-767.41553	240.80774	352.37164	-826.65668	251.55563	304.74857	-750.90015	1202.06091	296.20502	-780.97784	917.87256	179.77861	-750.66876	1060.48096	234.72041	-572.81689	1568.1062	151.54733	-766.08118	918.61707	327.7554	-652.6944	401.62631	125.91089	-895.54846	76.05226	195.69185	NaN	NaN	NaN	NaN	NaN	NaN	NaN	NaN	NaN	NaN	NaN	NaN	NaN	NaN	NaN	NaN	NaN	NaN	NaN	NaN	NaN	-680.85175	1592.69397	183.93919	NaN	NaN	NaN	NaN	NaN	NaN
32	0.31	-399.96548	485.30997	358.83636	-635.29089	103.21236	340.61688	-618.73578	877.82788	479.82095	-656.02997	579.71027	83.6933	-738.12012	1066.96252	496.64447	-669.19513	959.56348	488.33484	-709.90967	1158.56226	467.04538	-577.01556	875.71417	351.48309	-768.87061	242.99838	141.12981	-595.43127	909.01154	442.43222	-523.74396	616.17297	395.08142	-559.99994	1317.01855	62.13329	-758.92847	31.68205	225.47061	-528.99078	359.05725	372.47583	-386.26126	948.36407	133.97083	-522.08234	1276.25452	219.52434	-595.98633	875.93152	115.17133	-589.77991	1320.95007	369.81943	-567.45471	1575.63574	283.34314	-499.9328	1103.5752	221.20192	-948.99988	64.86463	229.715	-552.51483	857.74078	479.90079	-665.02161	1488.88477	267.6113	-446.5184	987.97192	31.65688	-645.06873	1358.51453	199.80156	-359.45953	939.97028	82.78393	-324.55832	872.63898	135.53275	-561.24744	1135.72498	-27.15956	-643.17639	1483.45532	138.80157	-536.69696	1027.39941	-32.55547	-702.23541	226.06824	351.39569	-762.18707	231.14566	303.73468	-720.08807	1205.18164	294.43945	-748.77393	920.15308	180.17046	-717.83051	1062.86438	233.0024	-541.31219	1570.65918	152.27948	-733.58307	922.47162	327.79153	-643.82275	401.29114	126.8855	-894.0423	80.9683	194.2363	NaN	NaN	NaN	NaN	NaN	NaN	NaN	NaN	NaN	NaN	NaN	NaN	NaN	NaN	NaN	NaN	NaN	NaN	NaN	NaN	NaN	-649.1109	1595.59656	184.57957	NaN	NaN	NaN	NaN	NaN	NaN
33	0.32	-358.3006	500.56107	358.65909	-556.03271	96.03997	338.96445	-599.69348	888.14331	482.15054	-636.51563	581.94647	84.83005	-717.18256	1077.98022	494.64261	-649.66754	970.65875	488.72223	-685.08478	1167.36841	465.5282	-543.86133	880.64136	351.04901	-763.62549	247.55545	140.95374	-575.46411	918.95099	445.78659	-486.35986	625.8266	394.82574	-526.62	1322.49268	63.99229	-758.96625	31.42654	225.05403	-476.60776	361.12811	371.98495	-345.65024	975.33606	144.73586	-489.95026	1280.64856	221.43779	-563.81281	878.28009	114.46545	-560.4729	1325.92871	370.09143	-535.28406	1580.03674	284.18188	-466.91022	1108.07373	223.10217	-946.29053	73.7217	228.21655	-533.57861	867.76892	484.70972	-632.44537	1493.35278	269.04047	-406.84705	1003.12561	39.64771	-613.19507	1362.08228	200.35587	-318.29153	963.41412	94.63147	-277.00583	907.07855	154.77066	-524.7948	1140.44617	-23.93823	-611.36749	1487.35608	140.25922	-497.83188	1033.45251	-26.93702	-635.51624	210.85962	350.05148	-695.90967	210.78883	302.2851	-688.99658	1209.02966	292.65497	-715.74854	923.4621	180.42868	-684.6593	1065.96423	231.1214	-509.27457	1574.86292	153.13411	-700.85242	927.48224	327.54971	-635.1272	403.20667	127.24918	-891.25977	87.4792	192.784	NaN	NaN	NaN	NaN	NaN	NaN	NaN	NaN	NaN	NaN	NaN	NaN	NaN	NaN	NaN	NaN	NaN	NaN	NaN	NaN	NaN	-617.17444	1599.71545	185.67361	NaN	NaN	NaN	NaN	NaN	NaN
